<?xml version="1.0" encoding="UTF-8"?>
<svg version="1.1" xmlns="http://www.w3.org/2000/svg" width="500" height="500">
<path d="M0 0 C165 0 330 0 500 0 C500 165 500 330 500 500 C335 500 170 500 0 500 C0 335 0 170 0 0 Z " fill="#000000" transform="translate(0,0)"/>
<path d="M0 0 C23.1298474 -0.72280773 48.14238882 4.43086421 66 20 C66.81984375 20.68964844 67.6396875 21.37929687 68.484375 22.08984375 C75.276643 27.96776798 80.35294914 33.88611167 84.66796875 41.75 C85.32768677 42.94882813 85.32768677 42.94882813 86.00073242 44.171875 C86.33049072 44.77515625 86.66024902 45.3784375 87 46 C83.90831396 48.37093034 80.7998049 50.71872093 77.6875 53.0625 C76.80642578 53.73861328 75.92535156 54.41472656 75.01757812 55.11132812 C74.17001953 55.74619141 73.32246094 56.38105469 72.44921875 57.03515625 C71.66893311 57.6269165 70.88864746 58.21867676 70.0847168 58.82836914 C69.39676025 59.21500732 68.70880371 59.60164551 68 60 C64.27926941 58.75975647 63.70069513 57.46919802 61.5625 54.25 C51.1042315 38.62108869 36.70572602 30.21751045 18.38671875 26.4453125 C14.53108987 25.938344 10.88747804 25.97143955 7 26 C7.4218457 26.91885986 7.84369141 27.83771973 8.27832031 28.78442383 C15.68657072 44.92727414 23.0843625 61.07247754 30.25854492 77.32104492 C33.34923232 84.31246841 36.4806581 91.28397106 39.63671875 98.24609375 C40.45789476 100.06028023 41.27902085 101.87448932 42.10009766 103.6887207 C43.32022565 106.38444269 44.54176392 109.07947246 45.76824951 111.77230835 C46.9132693 114.28653082 48.0527822 116.80318845 49.19140625 119.3203125 C49.70159554 120.4344175 49.70159554 120.4344175 50.22209167 121.57102966 C52.52493136 126.67956925 54.20747923 131.62243769 56 137 C66.89 137 77.78 137 89 137 C89.06058594 142.33027344 89.12117187 147.66054687 89.18359375 153.15234375 C89.22406737 156.52019079 89.26482997 159.88802932 89.30664062 163.25585938 C89.37304155 168.60666079 89.43834612 173.95746045 89.49731445 179.30834961 C89.54489877 183.62017766 89.59723916 187.93192368 89.65294075 192.24365425 C89.67339128 193.89233939 89.69209981 195.54104706 89.70907402 197.18977165 C89.73305859 199.4910996 89.76312077 201.7922711 89.79467773 204.09350586 C89.81022202 205.4058873 89.8257663 206.71826874 89.84178162 208.07041931 C89.66695355 210.88960172 89.66695355 210.88960172 91 212 C91.2995459 211.33097656 91.5990918 210.66195312 91.90771484 209.97265625 C105.55668488 179.49387716 119.25859017 149.03914422 133.03302002 118.61685181 C138.38254735 106.80092062 143.7101257 94.97571596 149.00463867 83.13500977 C152.19644875 76.00383542 155.40795402 68.88190607 158.6328125 61.765625 C159.04014618 60.86670029 159.44747986 59.96777557 159.86715698 59.04161072 C161.53309909 55.36545737 163.19913076 51.68934474 164.86566162 48.01345825 C170.31466605 35.99099791 175.71760701 23.95193665 180.96728516 11.84082031 C181.36222168 10.93299805 181.7571582 10.02517578 182.1640625 9.08984375 C182.49873535 8.31503662 182.8334082 7.54022949 183.17822266 6.74194336 C184 5 184 5 185 4 C186.84159023 3.90040379 188.68696967 3.86919589 190.53125 3.8671875 C191.65144531 3.86589844 192.77164062 3.86460938 193.92578125 3.86328125 C195.10527344 3.86714844 196.28476562 3.87101562 197.5 3.875 C199.26923828 3.86919922 199.26923828 3.86919922 201.07421875 3.86328125 C202.75451172 3.86521484 202.75451172 3.86521484 204.46875 3.8671875 C205.50451172 3.86831543 206.54027344 3.86944336 207.60742188 3.87060547 C210 4 210 4 211 5 C211.14830172 7.02538875 211.22798258 9.0558253 211.28125 11.0859375 C211.33635742 13.04563477 211.33635742 13.04563477 211.39257812 15.04492188 C211.42840209 16.48828084 211.46420891 17.93164022 211.5 19.375 C211.54051805 20.85743556 211.58154138 22.33985738 211.62304688 23.82226562 C211.73194828 27.74806695 211.83550046 31.67398951 211.9375 35.59997559 C212.0996347 41.82601143 212.26771187 48.051878 212.43969727 54.27764893 C212.498074 56.42902077 212.55293989 58.58046012 212.60742188 60.73193359 C212.81410007 68.53932845 213.16567658 76.32461763 213.6483078 84.11990356 C213.96169536 89.20561495 214.18104967 94.28113611 214.28125 99.375 C214.29965942 100.15407715 214.31806885 100.9331543 214.33703613 101.73583984 C214.41319086 104.96247182 214.48246741 108.18924052 214.55224609 111.41601562 C214.73697341 119.78806091 214.96616425 128.14210356 215.5 136.5 C216.136499 146.46522377 216.33639418 156.43437762 216.55224609 166.41601562 C216.73488628 174.69346972 216.95767339 182.95207396 217.49609375 191.21484375 C218.19097292 201.9869467 218.35116141 212.7721555 218.5625 223.5625 C218.6058256 225.65300091 218.64944361 227.74349578 218.69335938 229.83398438 C218.79947006 234.88925737 218.89961811 239.94459725 219 245 C210.75 245 202.5 245 194 245 C193.92483154 242.73745361 193.84966309 240.47490723 193.7722168 238.14379883 C192.45371805 198.52817841 191.1219613 158.91257732 189.62295532 119.30331421 C189.50005689 116.05277355 189.37982108 112.80215266 189.26205444 109.55142212 C188.6358064 92.31771448 187.84207906 75.15632243 186 58 C178.44416175 74.47497124 170.88993753 90.94977794 163.5 107.5 C158.38848525 118.94682337 153.19230273 130.3527966 147.96923828 141.74902344 C142.90281689 152.80609702 137.8975329 163.88812241 132.94018555 174.99462891 C128.28777714 185.40036998 123.53810753 195.76034629 118.78219604 206.11907959 C114.00441947 216.53163558 109.3256782 226.9771078 104.8293457 237.51513672 C104.28153442 238.79541748 104.28153442 238.79541748 103.72265625 240.1015625 C103.41078369 240.83713379 103.09891113 241.57270508 102.77758789 242.33056641 C102 244 102 244 101 245 C99.48307818 245.09941493 97.96158094 245.13080188 96.44140625 245.1328125 C95.02504883 245.13474609 95.02504883 245.13474609 93.58007812 245.13671875 C92.58427734 245.13285156 91.58847656 245.12898437 90.5625 245.125 C89.12100586 245.13080078 89.12100586 245.13080078 87.65039062 245.13671875 C81.37535194 245.12825612 75.22976746 244.74979244 69 244 C68.87882813 242.91203125 68.75765625 241.8240625 68.6328125 240.703125 C68.2817886 226.33824207 68.2817886 226.33824207 64 214 C63.68289063 214.47308594 63.36578125 214.94617188 63.0390625 215.43359375 C50.58857518 233.0775164 32.08348256 241.59625004 11.375 245.3125 C7.43822298 245.9272689 4.06838625 246 0 246 C0 238.08 0 230.16 0 222 C2.000625 221.773125 4.00125 221.54625 6.0625 221.3125 C23.05094684 218.85861323 37.90467542 212.39716869 50 200 C51.16208984 198.84177734 51.16208984 198.84177734 52.34765625 197.66015625 C54.64654511 193.95910822 53.91421491 192.23116055 53 188 C51.88822015 184.92482175 50.5525599 181.97213948 49.18359375 179.00390625 C48.80767593 178.17036118 48.43175812 177.3368161 48.04444885 176.47801208 C46.85047092 173.83563545 45.64421717 171.19907952 44.4375 168.5625 C43.62222758 166.76404305 42.80776575 164.96521841 41.99414062 163.16601562 C40.00692806 158.77227041 38.00318917 154.38662316 36 150 C26.1 149.67 16.2 149.34 6 149 C6 145.04 6 141.08 6 137 C13.92 137 21.84 137 30 137 C28.88625 134.53015625 27.7725 132.0603125 26.625 129.515625 C17.98680249 110.34990289 9.38382457 91.16941249 0.86523438 71.95019531 C0.38238731 70.86129501 0.38238731 70.86129501 -0.11021423 69.75039673 C-0.7096125 68.39837131 -1.30856824 67.04614958 -1.90699768 65.69369507 C-2.90434765 63.44353778 -3.89910566 61.20178868 -5 59 C-6.9219121 84.60110163 -8.3921901 110.18278421 -9.34495544 135.83796692 C-9.38451859 136.90206284 -9.42408173 137.96615875 -9.46484375 139.0625 C-9.50501114 140.145811 -9.54517853 141.22912201 -9.58656311 142.34526062 C-10.21435174 159.01370452 -10.99884099 175.67574493 -11.75708008 192.33865356 C-11.94395718 196.44580145 -12.13039919 200.55296887 -12.31640625 204.66015625 C-12.404702 206.60958885 -12.404702 206.60958885 -12.49478149 208.59840393 C-13.04022922 220.73066225 -13.52614268 232.86473969 -14 245 C-22.25 245 -30.5 245 -39 245 C-39 244.34 -39 243.68 -39 243 C-40.00546875 242.88914062 -41.0109375 242.77828125 -42.046875 242.6640625 C-57.79302588 240.39313521 -71.36497962 230.13726266 -83 220 C-83.62519531 219.45988281 -84.25039062 218.91976562 -84.89453125 218.36328125 C-99.50286734 204.78129196 -108.35386808 185.10676731 -113 166 C-113.24556641 165.00129883 -113.24556641 165.00129883 -113.49609375 163.98242188 C-118.92486693 140.31566278 -119.00352215 110.27218043 -112 87 C-111.81808105 86.34322266 -111.63616211 85.68644531 -111.44873047 85.00976562 C-106.07233279 65.69509299 -95.82589972 48.429043 -82 34 C-81.25234375 33.17757812 -80.5046875 32.35515625 -79.734375 31.5078125 C-69.09738317 20.20160595 -56.16442229 13.0070803 -42 7 C-41.13632813 6.608125 -40.27265625 6.21625 -39.3828125 5.8125 C-37 5 -37 5 -32 5 C-32 13.25 -32 21.5 -32 30 C-34.413125 31.299375 -36.82625 32.59875 -39.3125 33.9375 C-62.36954458 46.74124954 -77.55174949 67.55519573 -84.8125 92.75 C-87.48241851 104.15732004 -88.40612356 115.19580494 -88.375 126.875 C-88.37445618 127.64324097 -88.37391235 128.41148193 -88.37335205 129.20300293 C-88.28605331 156.10079217 -83.27122548 180.47902956 -64.3125 200.71875 C-57.07802801 207.85545886 -48.04868709 214.67299161 -38 217 C-37.95545181 215.78068787 -37.91090363 214.56137573 -37.86500549 213.30511475 C-36.44912789 174.6827162 -34.86525582 136.0682069 -33.24019587 97.45415735 C-32.96774884 90.97707006 -32.69722531 84.49990342 -32.4271068 78.02271867 C-32.16143428 71.65366475 -31.89463463 65.28465871 -31.62694556 58.91568923 C-31.46926821 55.16397476 -31.31197167 51.4122455 -31.15577507 47.66046906 C-30.54911828 33.09950664 -29.92327548 18.54497321 -29 4 C-20.42 4 -11.84 4 -3 4 C-2.01 5.98 -2.01 5.98 -1 8 C-0.67 5.36 -0.34 2.72 0 0 Z " fill="#F5F5F5" transform="translate(195,101)"/>
<path d="M0 0 C1.32 0 2.64 0 4 0 C5.65 3.63 7.3 7.26 9 11 C10.98 7.37 12.96 3.74 15 0 C16.32 0 17.64 0 19 0 C19 5.61 19 11.22 19 17 C17.68 17 16.36 17 15 17 C14.67 15.02 14.34 13.04 14 11 C13.01 12.98 12.02 14.96 11 17 C9.68 17 8.36 17 7 17 C6.01 15.02 5.02 13.04 4 11 C3.67 12.98 3.34 14.96 3 17 C2.01 17 1.02 17 0 17 C0 11.39 0 5.78 0 0 Z " fill="#E8E8E8" transform="translate(163,399)"/>
<path d="M0 0 C1.32 0 2.64 0 4 0 C5.65 3.3 7.3 6.6 9 10 C11.48724903 6.68366796 13.23109915 3.70626844 15 0 C16.32 0 17.64 0 19 0 C19 5.61 19 11.22 19 17 C17.68 17 16.36 17 15 17 C14.67 15.02 14.34 13.04 14 11 C13.01 12.98 12.02 14.96 11 17 C9.1875 16.875 9.1875 16.875 7 16 C5.25 12.9375 5.25 12.9375 4 10 C3.67 12.31 3.34 14.62 3 17 C2.01 17 1.02 17 0 17 C0 11.39 0 5.78 0 0 Z " fill="#ECECEC" transform="translate(272,366)"/>
<path d="M0 0 C5 1 5 1 6.58203125 2.62890625 C6.98808594 3.26699219 7.39414062 3.90507812 7.8125 4.5625 C8.44091797 5.52349609 8.44091797 5.52349609 9.08203125 6.50390625 C9.38496094 6.99761719 9.68789063 7.49132812 10 8 C10.33 5.36 10.66 2.72 11 0 C12.32 0 13.64 0 15 0 C15 5.61 15 11.22 15 17 C13.68 17 12.36 17 11 17 C9.296875 15.03125 9.296875 15.03125 7.75 12.5 C7.22921875 11.6646875 6.7084375 10.829375 6.171875 9.96875 C5.59179688 8.99421875 5.59179688 8.99421875 5 8 C4.67 10.97 4.34 13.94 4 17 C2.68 17 1.36 17 0 17 C0 11.39 0 5.78 0 0 Z " fill="#E7E7E7" transform="translate(294,399)"/>
<path d="M0 0 C5 1 5 1 6.58203125 2.62890625 C6.98808594 3.26699219 7.39414063 3.90507812 7.8125 4.5625 C8.44091797 5.52349609 8.44091797 5.52349609 9.08203125 6.50390625 C9.38496094 6.99761719 9.68789062 7.49132812 10 8 C10.33 5.36 10.66 2.72 11 0 C12.32 0 13.64 0 15 0 C15 5.61 15 11.22 15 17 C13.68 17 12.36 17 11 17 C9.296875 15.03125 9.296875 15.03125 7.75 12.5 C7.22921875 11.6646875 6.7084375 10.829375 6.171875 9.96875 C5.59179688 8.99421875 5.59179688 8.99421875 5 8 C4.67 10.97 4.34 13.94 4 17 C2.68 17 1.36 17 0 17 C0 11.39 0 5.78 0 0 Z " fill="#E7E7E7" transform="translate(213,399)"/>
<path d="M0 0 C1.32 0 2.64 0 4 0 C4 1.98 4 3.96 4 6 C5.98 6 7.96 6 10 6 C10 4.02 10 2.04 10 0 C11.65 0 13.3 0 15 0 C15 5.61 15 11.22 15 17 C13.68 17 12.36 17 11 17 C11 14.69 11 12.38 11 10 C8.69 10 6.38 10 4 10 C4 12.31 4 14.62 4 17 C2.68 17 1.36 17 0 17 C0 11.39 0 5.78 0 0 Z " fill="#DBDBDB" transform="translate(248,366)"/>
<path d="M0 0 C0.99 0.66 1.98 1.32 3 2 C3 2.66 3 3.32 3 4 C0.43386274 4.85537909 -0.93482536 5.01396599 -3.625 4.4375 C-4.40875 4.293125 -5.1925 4.14875 -6 4 C-8.34973818 5.89755144 -8.34973818 5.89755144 -8.125 9.125 C-8.063125 10.548125 -8.063125 10.548125 -8 12 C-6.34385343 12.38218767 -4.67542976 12.71395102 -3 13 C-2.67 12.67 -2.34 12.34 -2 12 C-2.66 11.67 -3.32 11.34 -4 11 C-4 10.01 -4 9.02 -4 8 C-1.69 8 0.62 8 3 8 C3 10.97 3 13.94 3 17 C1.08458862 17.10841951 -0.83259773 17.18578079 -2.75 17.25 C-4.35101563 17.31960938 -4.35101563 17.31960938 -5.984375 17.390625 C-9 17 -9 17 -11.35546875 15.265625 C-13.6654036 12.08329196 -13.63682865 9.95540294 -13.44140625 6.12890625 C-13 4 -13 4 -11 1.4375 C-6.93036701 -0.51253247 -4.49454597 -0.43495606 0 0 Z " fill="#EBEBEB" transform="translate(203,366)"/>
<path d="M0 0 C1.32 0 2.64 0 4 0 C5.0067004 2.26807204 6.00551766 4.53907754 7 6.8125 C7.28617188 7.45509766 7.57234375 8.09769531 7.8671875 8.75976562 C9.13711041 11.67756469 10 13.78265714 10 17 C8.68 17 7.36 17 6 17 C6 16.01 6 15.02 6 14 C4.0509375 14.185625 4.0509375 14.185625 2.0625 14.375 C1.33160156 14.44460938 0.60070312 14.51421875 -0.15234375 14.5859375 C-0.76207031 14.72257812 -1.37179688 14.85921875 -2 15 C-2.33 15.66 -2.66 16.32 -3 17 C-4.32 17 -5.64 17 -7 17 C-5.1668733 11.00067626 -2.92678249 5.55079437 0 0 Z " fill="#D5D5D5" transform="translate(196,399)"/>
<path d="M0 0 C5 1 5 1 6.1184082 2.58227539 C6.45618286 3.57988892 6.45618286 3.57988892 6.80078125 4.59765625 C7.05537109 5.31630859 7.30996094 6.03496094 7.57226562 6.77539062 C7.81654297 7.53013672 8.06082031 8.28488281 8.3125 9.0625 C8.57611328 9.82111328 8.83972656 10.57972656 9.11132812 11.36132812 C9.75931881 13.23461029 10.38210159 15.1165777 11 17 C9.35 16.67 7.7 16.34 6 16 C6 15.34 6 14.68 6 14 C3.36 14 0.72 14 -2 14 C-2.33 14.99 -2.66 15.98 -3 17 C-4.32 16.67 -5.64 16.34 -7 16 C-4.69 10.72 -2.38 5.44 0 0 Z " fill="#D6D6D6" transform="translate(305,366)"/>
<path d="M0 0 C1.32 0 2.64 0 4 0 C4 2.31 4 4.62 4 7 C6.64 7 9.28 7 12 7 C12 4.69 12 2.38 12 0 C12.99 0 13.98 0 15 0 C15 5.61 15 11.22 15 17 C13.68 17 12.36 17 11 17 C11 14.69 11 12.38 11 10 C8.69 10 6.38 10 4 10 C4 12.31 4 14.62 4 17 C2.68 17 1.36 17 0 17 C0 11.39 0 5.78 0 0 Z " fill="#EBEBEB" transform="translate(257,399)"/>
<path d="M0 0 C3.96 0 7.92 0 12 0 C12 0.99 12 1.98 12 3 C9.36 3 6.72 3 4 3 C4 4.32 4 5.64 4 7 C6.31 7 8.62 7 11 7 C11 7.99 11 8.98 11 10 C8.69 10 6.38 10 4 10 C4 11.32 4 12.64 4 14 C6.64 14 9.28 14 12 14 C12 14.99 12 15.98 12 17 C8.04 17 4.08 17 0 17 C0 11.39 0 5.78 0 0 Z " fill="#F3F3F3" transform="translate(331,399)"/>
<path d="M0 0 C4.95 0 9.9 0 15 0 C15 0.99 15 1.98 15 3 C13.02 3 11.04 3 9 3 C9 7.62 9 12.24 9 17 C7.68 17 6.36 17 5 17 C5 12.71 5 8.42 5 4 C3.35 4 1.7 4 0 4 C0 2.68 0 1.36 0 0 Z " fill="#EAEAEA" transform="translate(226,366)"/>
<path d="M0 0 C4.62 0 9.24 0 14 0 C14 1.32 14 2.64 14 4 C12.35 4 10.7 4 9 4 C9 8.29 9 12.58 9 17 C7.68 17 6.36 17 5 17 C5 12.38 5 7.76 5 3 C3.35 3 1.7 3 0 3 C0 2.01 0 1.02 0 0 Z " fill="#ECECEC" transform="translate(236,399)"/>
<path d="M0 0 C3.00296082 1.0986442 4.48085688 2.54746531 6.5625 4.9375 C4.2525 4.9375 1.9425 4.9375 -0.4375 4.9375 C-0.4375 5.9275 -0.4375 6.9175 -0.4375 7.9375 C0.5525 8.2675 1.5425 8.5975 2.5625 8.9375 C1.9025 9.5975 1.2425 10.2575 0.5625 10.9375 C-3.99305556 10.38194444 -3.99305556 10.38194444 -5.4375 8.9375 C-5.89441383 3.68299098 -5.89441383 3.68299098 -4.25 1 C-2.4375 -0.0625 -2.4375 -0.0625 0 0 Z " fill="#1A1A1A" transform="translate(199.4375,369.0625)"/>
<path d="M0 0 C1.32 0 2.64 0 4 0 C4 5.61 4 11.22 4 17 C2.68 17 1.36 17 0 17 C0 11.39 0 5.78 0 0 Z " fill="#F2F2F2" transform="translate(318,399)"/>
<path d="M0 0 C1.32 0 2.64 0 4 0 C4 5.61 4 11.22 4 17 C2.68 17 1.36 17 0 17 C0 11.39 0 5.78 0 0 Z " fill="#E4E4E4" transform="translate(281,399)"/>
<path d="M0 0 C1.32 0 2.64 0 4 0 C4 5.61 4 11.22 4 17 C2.68 17 1.36 17 0 17 C0 11.39 0 5.78 0 0 Z " fill="#DDDDDD" transform="translate(215,366)"/>
</svg>
